<?xml version="1.0" encoding="UTF-8"?> <svg xmlns="http://www.w3.org/2000/svg" width="976" height="950" viewBox="0 0 976 950" fill="none"> <path fill-rule="evenodd" clip-rule="evenodd" d="M905.245 170.575C934.799 254.873 791.177 322.255 775.666 412.518C759.862 504.48 867.151 594.555 818.223 676.967C771.065 756.397 653.044 776.497 560.352 775.179C476.584 773.989 419.488 707.205 347.348 670.274C280.123 635.859 196.497 625.785 152.539 566.407C105.283 502.573 82.3277 418.241 101.945 338.784C121.09 261.24 186.678 200.205 254.788 152.263C314.522 110.217 386.758 99.4748 458.382 87.8902C527.448 76.7194 594.062 74.0485 661.368 86.5025C749.011 102.719 877.009 90.0357 905.245 170.575Z" fill="url(#paint0_linear)"></path> <defs> <linearGradient id="paint0_linear" x1="170.84" y1="425.089" x2="1162.99" y2="670.166" gradientUnits="userSpaceOnUse"> <stop offset="0.197917" stop-color="#32C892"></stop> <stop offset="0.932292" stop-color="#BEDF94"></stop> </linearGradient> </defs> </svg> 